<svg version="1.1" viewBox="0.0 0.0 300.0 100.0" fill="none" stroke="none" stroke-linecap="square" stroke-miterlimit="10" xmlns:xlink="http://www.w3.org/1999/xlink" xmlns="http://www.w3.org/2000/svg"><clipPath id="gd0975cc0b2_1_7.0"><path d="m0 0l300.0 0l0 100.0l-300.0 0l0 -100.0z" clip-rule="nonzero"/></clipPath><g clip-path="url(#gd0975cc0b2_1_7.0)"><path fill="#000000" fill-opacity="0.0" d="m0 0l300.0 0l0 100.0l-300.0 0z" fill-rule="evenodd"/><path fill="#000000" fill-opacity="0.0" d="m0 -0.0131233595l300.0 0l0 100.0l-300.0 0z" fill-rule="evenodd"/><path fill="#ffffff" d="m85.93123 69.186874q-0.640625 0 -1.125 -0.453125q-0.484375 -0.453125 -0.484375 -1.140625l0 -38.453125q0 -0.703125 0.484375 -1.15625q0.484375 -0.453125 1.125 -0.453125q0.6875 0 1.140625 0.453125q0.453125 0.453125 0.453125 1.15625l0 37.171875l21.921875 0q0.75 0 1.171875 0.40625q0.421875 0.390625 0.421875 1.03125q0 0.640625 -0.421875 1.046875q-0.421875 0.390625 -1.171875 0.390625l-23.515625 0zm44.570847 0.3125q-4.265625 0 -7.65625 -1.9375q-3.375 -1.953125 -5.328125 -5.328125q-1.9375 -3.390625 -1.9375 -7.609375q0 -4.265625 1.9375 -7.640625q1.953125 -3.390625 5.328125 -5.328125q3.390625 -1.953125 7.65625 -1.953125q4.265625 0 7.625 1.953125q3.359375 1.9375 5.3125 5.328125q1.953125 3.375 1.953125 7.640625q0 4.21875 -1.953125 7.609375q-1.953125 3.375 -5.3125 5.328125q-3.359375 1.9375 -7.625 1.9375zm0 -2.984375q3.359375 0 6.0 -1.5625q2.640625 -1.578125 4.15625 -4.265625q1.53125 -2.703125 1.53125 -6.109375q0 -3.359375 -1.53125 -6.046875q-1.515625 -2.703125 -4.15625 -4.265625q-2.640625 -1.578125 -6.0 -1.578125q-3.296875 0 -5.96875 1.578125q-2.65625 1.5625 -4.203125 4.265625q-1.546875 2.6875 -1.546875 6.09375q0 3.359375 1.546875 6.0625q1.546875 2.6875 4.203125 4.265625q2.671875 1.5625 5.96875 1.5625zm36.209732 2.984375q-4.359375 0 -7.71875 -1.90625q-3.359375 -1.921875 -5.28125 -5.28125q-1.921875 -3.359375 -1.921875 -7.6875q0 -4.375 1.96875 -7.734375q1.96875 -3.359375 5.359375 -5.265625q3.390625 -1.921875 7.59375 -1.921875q4.375 0 7.703125 1.921875q3.34375 1.90625 5.265625 5.265625q1.921875 3.359375 1.921875 7.734375l-1.875 2.140625q0 3.734375 -1.65625 6.609375q-1.640625 2.875 -4.578125 4.5q-2.9375 1.625 -6.78125 1.625zm0.21875 10.828125q-4.421875 0 -7.546875 -1.65625q-3.125 -1.640625 -5.140625 -4.203125q-0.4375 -0.53125 -0.4375 -1.125q0 -0.578125 0.546875 -1.015625q0.53125 -0.375 1.25 -0.265625q0.71875 0.109375 1.09375 0.703125q1.65625 1.96875 4.203125 3.265625q2.5625 1.3125 6.03125 1.3125q3.3125 0 5.890625 -1.609375q2.59375 -1.59375 4.078125 -4.390625q1.5 -2.796875 1.5 -6.265625l0 -8.46875l1.4375 -1.984375l1.765625 0l0 10.453125q0 4.328125 -1.921875 7.78125q-1.921875 3.46875 -5.234375 5.46875q-3.296875 2.0 -7.515625 2.0zm-0.21875 -13.8125q3.421875 0 6.0625 -1.515625q2.640625 -1.515625 4.125 -4.203125q1.5 -2.703125 1.5 -6.171875q0 -3.515625 -1.5 -6.203125q-1.484375 -2.703125 -4.125 -4.21875q-2.640625 -1.515625 -6.0625 -1.515625q-3.40625 0 -6.078125 1.515625q-2.65625 1.515625 -4.15625 4.21875q-1.484375 2.6875 -1.484375 6.203125q0 3.46875 1.484375 6.171875q1.5 2.6875 4.15625 4.203125q2.671875 1.515625 6.078125 1.515625zm36.209732 2.984375q-4.265625 0 -7.65625 -1.9375q-3.375 -1.953125 -5.328125 -5.328125q-1.9375 -3.390625 -1.9375 -7.609375q0 -4.265625 1.9375 -7.640625q1.953125 -3.390625 5.328125 -5.328125q3.390625 -1.953125 7.65625 -1.953125q4.265625 0 7.625 1.953125q3.359375 1.9375 5.3125 5.328125q1.953125 3.375 1.953125 7.640625q0 4.21875 -1.953125 7.609375q-1.953125 3.375 -5.3125 5.328125q-3.359375 1.9375 -7.625 1.9375zm0 -2.984375q3.359375 0 6.0 -1.5625q2.640625 -1.578125 4.15625 -4.265625q1.53125 -2.703125 1.53125 -6.109375q0 -3.359375 -1.53125 -6.046875q-1.515625 -2.703125 -4.15625 -4.265625q-2.640625 -1.578125 -6.0 -1.578125q-3.296875 0 -5.96875 1.578125q-2.65625 1.5625 -4.203125 4.265625q-1.546875 2.6875 -1.546875 6.09375q0 3.359375 1.546875 6.0625q1.546875 2.6875 4.203125 4.265625q2.671875 1.5625 5.96875 1.5625z" fill-rule="nonzero"/><path fill="#000000" fill-opacity="0.0" d="m204.87665 13.485564l34.425186 0l0 25.41732l-34.425186 0z" fill-rule="evenodd"/><path fill="#ffffff" d="m222.12238 19.336102q1.734375 0 3.375 0.890625q1.65625 0.875 2.578125 2.53125q0.921875 1.65625 0.921875 3.453125q0 1.78125 -0.921875 3.421875q-0.90625 1.625 -2.546875 2.53125q-1.625 0.90625 -3.40625 0.90625q-1.78125 0 -3.421875 -0.90625q-1.640625 -0.90625 -2.546875 -2.53125q-0.90625 -1.640625 -0.90625 -3.421875q0 -1.796875 0.921875 -3.453125q0.921875 -1.65625 2.5625 -2.53125q1.65625 -0.890625 3.390625 -0.890625zm0 1.140625q-1.453125 0 -2.828125 0.75q-1.359375 0.734375 -2.140625 2.109375q-0.765625 1.375 -0.765625 2.875q0 1.484375 0.75 2.84375q0.765625 1.359375 2.125 2.125q1.375 0.765625 2.859375 0.765625q1.484375 0 2.84375 -0.765625q1.375 -0.765625 2.125 -2.125q0.765625 -1.359375 0.765625 -2.84375q0 -1.5 -0.78125 -2.875q-0.765625 -1.375 -2.140625 -2.109375q-1.375 -0.75 -2.8125 -0.75zm2.203125 6.84375l1.125 0.328125q-0.28125 1.140625 -1.171875 1.828125q-0.875 0.671875 -2.140625 0.671875q-1.609375 0 -2.609375 -1.03125q-1.0 -1.046875 -1.0 -2.890625q0 -1.203125 0.453125 -2.09375q0.453125 -0.890625 1.296875 -1.328125q0.84375 -0.453125 1.921875 -0.453125q1.21875 0 2.015625 0.578125q0.796875 0.578125 1.09375 1.5625l-1.078125 0.265625q-0.28125 -0.671875 -0.8125 -1.03125q-0.53125 -0.359375 -1.25 -0.359375q-1.046875 0 -1.734375 0.75q-0.671875 0.75 -0.671875 2.140625q0 1.390625 0.640625 2.109375q0.640625 0.71875 1.65625 0.71875q0.828125 0 1.4375 -0.46875q0.625 -0.484375 0.828125 -1.296875z" fill-rule="nonzero"/></g></svg>